<?xml version="1.0"?>
<svg xmlns="http://www.w3.org/2000/svg" version="1" viewBox="0 0 24 24" enable-background="new 0 0 24 24" fill="#fff">
    <path d="M 16 2 L 14.59375 3.40625 L 15.125 3.9375 L 13.28125 5.78125 L 14.71875 7.21875 L 16.5625 5.375 L 18.375 7.1875 L 16.59375 9 L 18 10.40625 L 19.8125 8.625 L 20.59375 9.40625 L 22 8 L 16 2 z M 10.21875 4.28125 L 8.78125 5.71875 L 10.21875 7.15625 L 4.96875 12.40625 L 4.96875 12.4375 C 4.944683 12.45724 4.929196 12.4796 4.90625 12.5 C 4.0966534 13.219573 3.9555371 14.335361 4.25 15.21875 L 4.25 15.25 L 4.28125 15.28125 L 5.125 17.25 L 3 19.40625 L 3 22 L 6.25 18.75 L 8.8125 19.8125 L 8.84375 19.84375 L 8.875 19.84375 C 9.759605 20.138618 10.858048 19.954452 11.59375 19.21875 L 16.9375 13.875 L 18 14.90625 L 19.40625 13.5 L 10.21875 4.28125 z M 11.65625 8.5625 L 14.4375 11.375 L 13.46875 12.3125 L 11.53125 10.46875 L 10.46875 11.53125 L 12.375 13.375 L 11.28125 14.4375 L 9.4375 12.5625 L 8.375 13.625 L 10.21875 15.5 L 9 16.6875 L 6.28125 13.9375 L 6.3125 13.90625 L 11.65625 8.5625 z"/>
</svg>
