<svg xmlns="http://www.w3.org/2000/svg" viewBox="0 0 1000 1000" fill="#fff"><path d="M951.5 309.3c-24.7-58.4-60-110.8-105-155.7-45-45-97.4-80.3-155.7-105C631 23.2 567.5 10.3 502.1 10h-4.2c-65.4.3-128.9 13.2-188.6 38.5-58.4 24.7-110.8 60-155.7 105-45 45-80.3 97.4-105 155.7C23 369.7 10 433.9 10 500c0 66.1 13 130.3 38.5 190.7 24.7 58.3 60 110.8 105 155.7 45 45 97.4 80.3 155.7 105 59.8 25.3 123.2 38.2 188.6 38.5h4.2c65.4-.3 128.8-13.2 188.6-38.5 58.4-24.7 110.8-60 155.7-105 45-45 80.3-97.4 105-155.7C977 630.3 990 566.2 990 500c0-66.1-13-130.3-38.5-190.7zm-770.2-128c41.4-41.4 89.6-73.9 143.2-96.6 18.4-7.8 37.2-14.3 56.3-19.5-23.9 23.9-45.7 55.2-64.8 93.4-12.2 24.5-23 51-32.2 79.3-42.4-11.3-81.3-26-115-43.7 4.2-4.3 8.3-8.6 12.5-12.9zM84.7 324.6c15.1-35.8 34.6-69.1 58.2-99.6 37.8 20.7 81.7 37.8 129.9 50.7-16.6 62.8-26 132.4-27.5 204.7H49.8c2.3-54 14-106.3 34.9-155.8zm58.2 450.5c-23.6-30.5-43.1-63.9-58.2-99.6-21-49.5-32.7-101.8-35-155.7h195.6c1.4 72.3 10.9 141.9 27.5 204.7-48.1 12.8-92.1 29.8-129.9 50.6zm181.7 140.2c-53.7-22.7-101.9-55.2-143.2-96.6-4.2-4.2-8.4-8.5-12.4-12.9 33.7-17.7 72.6-32.4 115-43.7 9.2 28.3 20 54.8 32.2 79.3 19.1 38.2 40.9 69.5 64.8 93.4-19.2-5.2-38-11.8-56.4-19.5zm155.7 33.4c-20.2-4-40-14.2-59.2-30.4-26-22-49.5-53.8-69.9-94.6-10.9-21.9-20.6-45.6-29-70.8 49.5-10.3 102.9-16.4 158-17.5v213.3zm0-252.6c-59 1.2-116.2 7.7-169.3 19.1-15.9-59.7-24.9-126.2-26.4-195.5h195.6v176.4zm0-215.8H284.7c1.4-69.3 10.5-135.8 26.4-195.5 53.1 11.4 110.4 17.9 169.3 19.1v176.4zm0-215.7c-55.1-1.2-108.5-7.2-158-17.5 8.4-25.2 18-48.9 29-70.8 20.4-40.8 43.9-72.6 69.9-94.6 19.2-16.2 39-26.4 59.2-30.4v213.3zM675.4 84.7c53.7 22.7 101.9 55.2 143.2 96.6 4.2 4.2 8.3 8.5 12.4 12.9-33.3 17.4-72.5 32.3-115 43.7-9.2-28.3-19.9-54.8-32.2-79.3-19.1-38.2-40.9-69.5-64.8-93.4 19.2 5.2 38 11.8 56.4 19.5zM519.7 51.3c20.2 4 40 14.2 59.1 30.4 26 22 49.5 53.8 69.9 94.6 10.9 21.8 20.6 45.5 29 70.8-49.9 10.4-103.6 16.4-158 17.6V51.3zm0 252.6c58.9-1.2 115.6-7.6 169.3-19.1 15.9 59.7 24.9 126.2 26.4 195.5H519.7V303.9zm0 215.8h195.6c-1.4 69.3-10.5 135.8-26.4 195.6-53.1-11.4-110.4-17.9-169.2-19.1V519.7zm59.1 398.7c-19.1 16.2-39 26.4-59.1 30.4V735.5c55.1 1.2 108.5 7.2 158 17.5-8.4 25.2-18 48.9-29 70.8-20.4 40.8-43.9 72.6-69.9 94.6zm239.9-99.7c-41.4 41.4-89.6 73.9-143.2 96.6-18.4 7.8-37.2 14.3-56.3 19.5 23.9-23.9 45.7-55.2 64.8-93.4 12.2-24.4 23-51 32.2-79.3 42.4 11.3 81.3 26 115 43.7-4.2 4.3-8.3 8.6-12.5 12.9zm96.6-143.3c-15.1 35.8-34.6 69.1-58.2 99.6-37.8-20.7-81.8-37.8-129.9-50.7 16.6-62.8 26.1-132.4 27.5-204.7h195.6c-2.4 54-14.1 106.3-35 155.8zM754.6 480.3c-1.4-72.3-10.9-141.9-27.5-204.7 48.9-13.1 92.4-30.1 129.9-50.7 23.6 30.5 43.1 63.9 58.2 99.6 21 49.5 32.7 101.8 35 155.7H754.6z"/></svg>