<svg xmlns="http://www.w3.org/2000/svg" width="210" height="210"><filter id="a"><feGaussianBlur stdDeviation="4"/></filter><circle fill="#666" opacity=".8" filter="url(#a)" cx="104" cy="104.001" r="100"/><linearGradient id="b" gradientUnits="userSpaceOnUse" x1="101.038" y1="6.414" x2="101.038" y2="197.646"><stop offset="0" stop-color="#151F47"/><stop offset="1" stop-color="#0099ED"/></linearGradient><circle fill="url(#b)" cx="101.038" cy="101.118" r="100"/><linearGradient id="c" gradientUnits="userSpaceOnUse" x1="101.038" y1="7.783" x2="101.038" y2="194.453"><stop offset="0" stop-color="#6B8FBA"/><stop offset=".25" stop-color="#092463"/><stop offset=".7" stop-color="#145095"/><stop offset="1" stop-color="#3AAFFA"/></linearGradient><circle fill="url(#c)" cx="101.038" cy="101.117" r="93.335"/><path fill="#1A1A1A" filter="url(#a)" d="M46.146 97.482c-3.888 9.072-12.961 45.365-12.961 45.365s19.442-7.345 34.564-4.321c7.479 1.603 14.691 8.642 14.691 8.642s10.369-37.157 12.529-45.367c-6.913-6.048-22.035-16.417-48.823-4.319zM130.261 61.072c-7.478-1.602-14.689-8.641-14.689-8.641s-10.37 37.157-12.53 45.367c6.914 6.049 22.035 16.418 48.823 4.319 3.889-9.073 12.962-45.366 12.962-45.366s-19.444 7.346-34.566 4.321z"/><path fill="#1A1A1A" filter="url(#a)" d="M115 112.846c-7.479-1.602-14.691-8.64-14.691-8.64s-10.369 37.156-12.53 45.365c6.914 6.049 22.035 16.418 48.823 4.32 3.889-9.072 12.962-45.366 12.962-45.366s-19.443 7.345-34.564 4.321z"/><radialGradient id="d" cx="97.702" cy="95.394" r="58.688" gradientUnits="userSpaceOnUse"><stop offset="0" stop-color="#DECA00"/><stop offset=".089" stop-color="#E4B900"/><stop offset=".232" stop-color="#EBA400"/><stop offset=".373" stop-color="#F09700"/><stop offset=".505" stop-color="#F19300"/><stop offset=".583" stop-color="#EC8B04"/><stop offset=".704" stop-color="#E0750E"/><stop offset=".853" stop-color="#CC511E"/><stop offset="1" stop-color="#B42732"/></radialGradient><path fill="url(#d)" d="M83.011 86.753c7.478 1.603 14.69 8.641 14.69 8.641s10.369-37.157 12.53-45.366c-6.914-6.049-22.036-16.418-48.824-4.32-3.887 9.072-12.961 45.366-12.961 45.366s19.443-7.345 34.565-4.321z"/><radialGradient id="e" cx="-4580.661" cy="-438.492" r="58.688" gradientTransform="rotate(180 -2240.176 -167.143)" gradientUnits="userSpaceOnUse"><stop offset="0" stop-color="#EEE396"/><stop offset=".039" stop-color="#EFDF85"/><stop offset=".136" stop-color="#F2D75F"/><stop offset=".232" stop-color="#F4D141"/><stop offset=".326" stop-color="#F5CD2C"/><stop offset=".418" stop-color="#F6CA1F"/><stop offset=".505" stop-color="#F6C91B"/><stop offset=".609" stop-color="#F4C118"/><stop offset=".771" stop-color="#EFAB10"/><stop offset=".968" stop-color="#E78703"/><stop offset="1" stop-color="#E58101"/></radialGradient><path fill="url(#e)" d="M115 112.846c-7.479-1.602-14.691-8.64-14.691-8.64s-10.369 37.156-12.53 45.365c6.914 6.049 22.035 16.418 48.823 4.32 3.889-9.072 12.962-45.366 12.962-45.366s-19.443 7.345-34.564 4.321z"/><radialGradient id="f" cx="-4586.694" cy="-432.001" r="68.887" gradientTransform="rotate(180 -2240.176 -167.143)" gradientUnits="userSpaceOnUse"><stop offset="0" stop-color="#D7DE73"/><stop offset=".184" stop-color="#BCCB4E"/><stop offset=".394" stop-color="#A1B829"/><stop offset=".505" stop-color="#97B11B"/><stop offset=".685" stop-color="#6D9620"/><stop offset="1" stop-color="#1B632B"/></radialGradient><path fill="url(#f)" d="M130.261 61.072c-7.478-1.602-14.689-8.641-14.689-8.641s-10.37 37.157-12.53 45.367c6.914 6.049 22.035 16.418 48.823 4.319 3.889-9.072 12.962-45.366 12.962-45.366s-19.444 7.346-34.566 4.321z"/><radialGradient id="g" cx="91.075" cy="103.026" r="65.543" gradientUnits="userSpaceOnUse"><stop offset="0" stop-color="#DAE2E9"/><stop offset=".058" stop-color="#B2CDEB"/><stop offset=".135" stop-color="#84B5ED"/><stop offset=".212" stop-color="#5EA1EF"/><stop offset=".288" stop-color="#4092F0"/><stop offset=".363" stop-color="#2B87F1"/><stop offset=".436" stop-color="#1E80F2"/><stop offset=".505" stop-color="#1A7EF2"/><stop offset=".586" stop-color="#1B7AEA"/><stop offset=".71" stop-color="#1D6DD4"/><stop offset=".862" stop-color="#2159B0"/><stop offset="1" stop-color="#25448A"/></radialGradient><path fill="url(#g)" d="M46.146 97.482c-3.888 9.072-12.961 45.365-12.961 45.365s19.442-7.345 34.563-4.321c7.479 1.603 14.691 8.642 14.691 8.642s10.369-37.157 12.529-45.367c-6.911-6.048-22.034-16.417-48.822-4.319z"/></svg>