<svg xmlns="http://www.w3.org/2000/svg" viewBox="0 0 80.401 80.398"><title>Opera Logo</title><linearGradient id="a" gradientUnits="userSpaceOnUse" x1="33.496" y1="1.311" x2="33.496" y2="79.228"><stop offset=".3" stop-color="#FF1B2D"/><stop offset=".438" stop-color="#FA1A2C"/><stop offset=".594" stop-color="#ED1528"/><stop offset=".758" stop-color="#D60E21"/><stop offset=".927" stop-color="#B70519"/><stop offset="1" stop-color="#A70014"/></linearGradient><linearGradient id="b" gradientUnits="userSpaceOnUse" x1="53.682" y1="5.903" x2="53.682" y2="74.817"><stop offset="0" stop-color="#9C0000"/><stop offset=".7" stop-color="#FF4B4B"/></linearGradient><path fill="url(#a)" d="M26.967 62.853c-4.444-5.246-7.323-13.003-7.52-21.707v-1.894c.196-8.704 3.075-16.46 7.52-21.707 5.766-7.49 14.34-12.237 23.912-12.237 5.888 0 11.398 1.798 16.11 4.925C59.915 3.903 50.584.04 40.35.003L40.2 0C17.997 0 0 17.998 0 40.2c0 21.557 16.972 39.15 38.285 40.15.635.03 1.273.048 1.915.048 10.292 0 19.678-3.87 26.79-10.23-4.712 3.125-10.22 4.923-16.11 4.923-9.573 0-18.146-4.748-23.913-12.237z"/><path fill="url(#b)" d="M26.967 17.546c3.688-4.354 8.454-6.98 13.66-6.98 11.7 0 21.188 13.268 21.188 29.634s-9.486 29.634-21.19 29.634c-5.204 0-9.97-2.626-13.657-6.98 5.767 7.49 14.34 12.237 23.913 12.237 5.89 0 11.398-1.797 16.11-4.922 8.23-7.36 13.41-18.06 13.41-29.97 0-11.907-5.18-22.604-13.407-29.965C62.28 7.107 56.77 5.308 50.88 5.308c-9.573 0-18.146 4.75-23.913 12.238z"/></svg>