<svg version="1" xmlns="http://www.w3.org/2000/svg" width="933.333" height="933.333" viewBox="0 0 700.000000 700.000000"><path d="M445.6 79.2l-19.9 20 7.8 7.8 7.7 7.8-26.6 26.6c-22.1 22.1-26.5 26.9-25.7 28.4.6.9 9.8 10.4 20.5 21.1 17.6 17.5 19.7 19.3 21.2 18 1-.8 13.2-12.8 27.1-26.8l25.4-25.4 26.4 26.4 26.4 26.4L510 236l-25.9 26.5 20.2 20.3c11.1 11.1 20.5 20.1 20.9 20 .4-.2 12.2-11.6 26.3-25.3 14.1-13.8 25.9-25.1 26.3-25.3.4-.1 5.6 4.7 11.6 10.8 6 6 11.1 11 11.3 11 .7 0 40.3-39.8 40.3-40.6 0-1.2-173.4-174.4-174.5-174.3-.5 0-10 9.1-20.9 20.1zM276.8 145.9l-20.7 20.8 21 21 20.9 20.9-79.8 80c-46.3 46.3-81.7 82.6-84.4 86.4-9.9 13.9-13.2 24.7-13.3 43 0 16 .8 19.6 9.1 38.7.8 1.8 2 4.8 2.8 6.5.7 1.8 4.8 11.2 9 21 4.2 9.7 7.6 18 7.6 18.5 0 .6-19.1 20.3-56.5 58.3l-5 5.1v37.4c0 20.6.1 37.5.4 37.5.2 0 21-20.6 46.2-45.9 25.2-25.2 46.5-46.3 47.3-47 1.1-.9 4.2 0 14.2 4.3 33 13.8 64.5 26.7 66.1 27.1 1 .3 3.8.9 6.3 1.6 8 2 25.5 1.5 35-1 9.4-2.5 19.9-7.4 26.9-12.7 2.5-1.9 40.5-39.3 84.4-83.1l79.7-79.7 6.8 6.6c3.7 3.7 10.6 10.5 15.4 15.1l8.7 8.4 20.6-20.5 20.5-20.6-64.2-64.3c-35.4-35.4-95.6-95.8-133.9-134.3-38.3-38.5-69.8-70-70-69.9-.2 0-9.7 9.4-21.1 20.8zm84.4 125.3c11.5 11.7 29.7 30.1 40.4 40.9l19.5 19.5-8.3 8.1c-4.6 4.5-10.9 10.7-14.2 13.8l-5.8 5.7-5.2-5c-2.8-2.7-7.8-7.5-11.1-10.7-3.3-3.1-12.7-12-20.9-19.8-8.3-7.8-15.7-15-16.5-16-.9-.9-2-1.7-2.6-1.7-1.8 0-30.8 29.7-30.1 30.9.7 1 14.2 14.4 27.6 27.1 3.6 3.4 11.1 10.7 16.7 16.2l10.2 10-4.2 4c-2.3 2.2-9.5 9.1-15.9 15.4l-11.7 11.5-23.8-24.1c-13-13.3-24-24.4-24.3-24.8-.3-.4-1.8-1.8-3.3-3.2l-2.8-2.4-14.9 14.9c-8.3 8.3-15 15.5-15 16.1 0 .6 1.5 2.4 3.3 4.1 1.7 1.7 13.7 13.7 26.5 26.7L298 452l-16.1 15.7c-9 8.7-17 16.5-17.8 17.4-1.5 1.4-5.2-2.2-41.3-38.5l-39.7-40.1 78.2-78.2c43-43.1 78.4-78.3 78.6-78.3.2 0 9.8 9.6 21.3 21.2z"/></svg>